<svg width="530" height="344" viewBox="0 0 530 344" fill="none" xmlns="http://www.w3.org/2000/svg">
<path d="M329.784 307L261.362 253.531L120.991 337.155L193.062 253.531L61.5 344L90 297.5L12 309L93 240L0.504883 234.992L140.69 184.21L14.8091 152.851L162.253 148.45L68.7251 105.537L140.69 111.919L3.13434 5.97995L185.522 87.5047L156.032 0.186157L207.756 59.6032L228.49 27.6438L256.148 77.4776L274.252 42.1354L283.613 82.2731L344.07 47.0245L322.414 111.919L354.239 92.7362L329.784 128.049L529.495 125.869L329.784 164.87L375.606 175.978L338.809 178.755L483.22 230.132L348 220.5L408.084 272.236L322.414 250.5L329.784 307Z" fill="#FBCE51"/>
</svg>
